<svg xmlns="http://www.w3.org/2000/svg" xmlns:xlink="http://www.w3.org/1999/xlink" viewBox="0 0 350 330">
  <g>
    <animate
      attributeName="opacity"
      to="0"
      dur="0.35s"
      begin="2s"
      fill="freeze"
    />
    <g id="propeller-top-back">
      <animateTransform
        attributeName="transform"
        type="translate"
        values="0 3; 0 3; 0 0; 0 -3; 0 -3; 0 0; 0 3"
        keyTimes="0; 0.05; 0.25; 0.5; 0.55; 0.75; 1"
        dur="2s"
        repeatCount="3"
      />
      <path
        d="M123.23,173.34h9.16a3.29,3.29,0,0,1,3.29,3.3v5.71a3.29,3.29,0,0,1-3.29,3.3H115.57a1.32,1.32,0,0,1-1.32-1.32v-2a9,9,0,0,1,9-9"
        fill="#068e4d"
      />
      <path
        d="M123.23,173.34h9.16a3.29,3.29,0,0,1,3.29,3.3v5.71a3.29,3.29,0,0,1-3.29,3.3H115.57a1.32,1.32,0,0,1-1.32-1.32v-2A9,9,0,0,1,123.23,173.34Z"
        fill="none" stroke="#fff" stroke-linecap="round" stroke-linejoin="round" stroke-width="2"
      />
    </g>
    <g id="propeller-bottom-back">
      <animateTransform
        attributeName="transform"
        type="translate"
        values="0 3; 0 3; 0 0; 0 -3; 0 -3; 0 0; 0 3"
        keyTimes="0; 0.05; 0.25; 0.5; 0.55; 0.75; 1"
        dur="2s"
        repeatCount="3"
      />
      <path
        d="M123.23,207.39h9.16a3.29,3.29,0,0,0,3.29-3.3v-5.71a3.29,3.29,0,0,0-3.29-3.3H115.57a1.32,1.32,0,0,0-1.32,1.32v2a9,9,0,0,0,9,9"
        fill="#068e4d"
      />
      <path
        d="M123.23,207.39h9.16a3.29,3.29,0,0,0,3.29-3.3v-5.71a3.29,3.29,0,0,0-3.29-3.3H115.57a1.32,1.32,0,0,0-1.32,1.32v2A9,9,0,0,0,123.23,207.39Z"
        fill="none" stroke="#fff" stroke-linecap="round" stroke-linejoin="round" stroke-width="2"
      />
    </g>
    <g id="cabin">
      <path
        id="cabin-border"
        d="M175.44,249.28h48.36a13.27,13.27,0,0,0,13-10.65l3.74-18.32H172.36v25.89A3.09,3.09,0,0,0,175.44,249.28Z"
        fill="none" stroke="#fff" stroke-linecap="round" stroke-linejoin="round" stroke-width="2"
      >
        <animate
          attributeName="d"
          values="
            M 175.117 246 L 224.059 246 C 227.159 245.998 229.102 245.082 231.5 243.407 C 233.898 241.732 235.888 239.352 236.5 236.761 L 241 221 L 172 221 L 173 243.283 C 173.003 243.987 173 243.826 173.5 244.913 C 174 245.457 174.291 245.998 175.117 246 Z;
            M 175.44 249.28 L 223.8 249.28 C 226.862 249.278 229.832 248.216 232.201 246.275 C 234.57 244.334 236.195 241.632 236.8 238.63 L 240.54 220.31 L 172.36 220.31 L 172.36 246.2 C 172.363 247.016 172.688 247.798 173.265 248.375 C 173.842 248.952 174.624 249.277 175.44 249.28 Z;
            M 175.117 246 L 224.059 246 C 227.159 245.998 229.102 245.082 231.5 243.407 C 233.898 241.732 235.888 239.352 236.5 236.761 L 241 221 L 172 221 L 173 243.283 C 173.003 243.987 173 243.826 173.5 244.913 C 174 245.457 174.291 245.998 175.117 246 Z;
          "
          dur="1s"
          repeatCount="3"
        />
      </path>
      <path
        id="cabin-front-window" d="M235.79,241.69h-9.22a8.31,8.31,0,0,1-8.28-8.31V220.31" fill="none" stroke="#fff"
        stroke-linecap="round"
        stroke-miterlimit="10" stroke-width="2"
      >
        <animate
          attributeName="d"
          values="
            M 236 236 L 226.517 236 C 224.255 235.994 222.089 235.336 220.493 234.171 C 218.896 233.005 218 231.427 218 229.781 L 218 220;
            M 235.79 241.69 L 226.57 241.69 C 224.372 241.682 222.265 240.802 220.713 239.245 C 219.162 237.689 218.29 235.578 218.29 233.38 L 218.29 220.31;
            M 236 236 L 226.517 236 C 224.255 235.994 222.089 235.336 220.493 234.171 C 218.896 233.005 218 231.427 218 229.781 L 218 220;
          "
          dur="1s"
          repeatCount="3"
        />
      </path>
      <path
        d="M204.25,231.88h-2.05a3.45,3.45,0,0,0-3.43,3.45v2.92a3.45,3.45,0,0,0,3.43,3.45h2.05a3.45,3.45,0,0,0,3.43-3.45v-2.92A3.44,3.44,0,0,0,204.25,231.88Z"
        fill="none" stroke="#fff" stroke-linecap="round" stroke-linejoin="round" stroke-width="2"
      >
        <animate
          attributeName="d"
          values="
            M 204.535 232 L 202.465 232 C 201.544 232.004 200.663 232.302 200.014 232.829 C 199.364 233.356 199 234.068 199 234.811 L 199 237.189 C 199 237.932 199.364 238.644 200.014 239.171 C 200.663 239.698 201.544 239.996 202.465 240 L 204.535 240 C 205.456 239.996 206.337 239.698 206.986 239.171 C 207.636 238.644 208 237.932 208 237.189 L 208 234.811 C 208.001 234.443 207.913 234.078 207.739 233.738 C 207.566 233.397 207.311 233.088 206.989 232.827 C 206.668 232.566 206.285 232.358 205.864 232.216 C 205.443 232.075 204.992 232.001 204.535 232 Z;
            M 204.25 231.88 L 202.2 231.88 C 201.289 231.885 200.416 232.251 199.773 232.898 C 199.131 233.544 198.77 234.419 198.77 235.33 L 198.77 238.25 C 198.77 239.161 199.131 240.036 199.773 240.682 C 200.416 241.329 201.289 241.695 202.2 241.7 L 204.25 241.7 C 205.161 241.695 206.034 241.329 206.677 240.682 C 207.319 240.036 207.68 239.161 207.68 238.25 L 207.68 235.33 C 207.681 235.028 207.642 234.729 207.565 234.439 C 207.489 234.15 207.374 233.871 207.224 233.609 C 206.924 233.085 206.491 232.649 205.969 232.346 C 205.447 232.042 204.854 231.882 204.25 231.88 Z;
            M 204.535 232 L 202.465 232 C 201.544 232.004 200.663 232.302 200.014 232.829 C 199.364 233.356 199 234.068 199 234.811 L 199 237.189 C 199 237.932 199.364 238.644 200.014 239.171 C 200.663 239.698 201.544 239.996 202.465 240 L 204.535 240 C 205.456 239.996 206.337 239.698 206.986 239.171 C 207.636 238.644 208 237.932 208 237.189 L 208 234.811 C 208.001 234.443 207.913 234.078 207.739 233.738 C 207.566 233.397 207.311 233.088 206.989 232.827 C 206.668 232.566 206.285 232.358 205.864 232.216 C 205.443 232.075 204.992 232.001 204.535 232 Z;
          "
          dur="1s"
          repeatCount="3"
        />
      </path>
      <path
        d="M185.64,231.88h-2.05a3.45,3.45,0,0,0-3.43,3.45v2.92a3.45,3.45,0,0,0,3.43,3.45h2.05a3.45,3.45,0,0,0,3.43-3.45v-2.92A3.45,3.45,0,0,0,185.64,231.88Z"
        fill="none" stroke="#fff" stroke-linecap="round" stroke-linejoin="round" stroke-width="2"
      >
        <animate
          attributeName="d"
          values="
            M 185.535 232 L 183.465 232 C 182.544 232.004 181.663 232.302 181.014 232.829 C 180.364 233.356 180 234.068 180 234.811 L 180 237.189 C 180 237.932 180.364 238.644 181.014 239.171 C 181.663 239.698 182.544 239.996 183.465 240 L 185.535 240 C 186.456 239.996 187.337 239.698 187.986 239.171 C 188.636 238.644 189 237.932 189 237.189 L 189 234.811 C 189 234.068 188.636 233.356 187.986 232.829 C 187.337 232.302 186.456 232.004 185.535 232 Z;
            M 185.64 231.88 L 183.59 231.88 C 182.679 231.885 181.806 232.251 181.163 232.898 C 180.521 233.544 180.16 234.419 180.16 235.33 L 180.16 238.25 C 180.16 239.161 180.521 240.036 181.163 240.682 C 181.806 241.329 182.679 241.695 183.59 241.7 L 185.64 241.7 C 186.551 241.695 187.424 241.329 188.067 240.682 C 188.709 240.036 189.07 239.161 189.07 238.25 L 189.07 235.33 C 189.07 234.419 188.709 233.544 188.067 232.898 C 187.424 232.251 186.551 231.885 185.64 231.88 Z;
            M 185.535 232 L 183.465 232 C 182.544 232.004 181.663 232.302 181.014 232.829 C 180.364 233.356 180 234.068 180 234.811 L 180 237.189 C 180 237.932 180.364 238.644 181.014 239.171 C 181.663 239.698 182.544 239.996 183.465 240 L 185.535 240 C 186.456 239.996 187.337 239.698 187.986 239.171 C 188.636 238.644 189 237.932 189 237.189 L 189 234.811 C 189 234.068 188.636 233.356 187.986 232.829 C 187.337 232.302 186.456 232.004 185.535 232 Z;
          "
          dur="1s"
          repeatCount="3"
        />
      </path>
    </g>
    <path
      d="M205,227.08c43.38,0,74.86-15.55,74.86-37s-31.48-37-74.86-37c-27.94,0-55.36,13.53-73.46,24.87a14.3,14.3,0,0,0,0,24.21c18.09,11.33,45.52,24.87,73.46,24.87"
      fill="#068e4d"
    />
    <path
      d="M205,227.08c43.38,0,74.86-15.55,74.86-37s-31.48-37-74.86-37c-27.94,0-55.36,13.53-73.46,24.87a14.3,14.3,0,0,0,0,24.21C149.63,213.54,177.06,227.08,205,227.08Z"
      fill="none" stroke="#fff" stroke-width="2"
    />
    <g id="balloon-stripe-first">
      <path
        d="M204.99 179C176.76 179 148.93 181.85 132.19 186.09C128.24 187.09 126.19 188.75 126.11 190.43C126.028 188.159 126.546 185.908 127.612 183.901C128.678 181.894 130.253 180.204 132.18 179C148.92 168.5 176.76 154.32 204.99 154.32C249.8 154.32 278.63 170.32 278.63 190.07C278.63 190.19 278.63 190.31 278.63 190.44C278.26 182.49 249.52 179 204.99 179Z"
        fill="#36E69A"
      >
        <animate
          attributeName="d"
          values="
            M204.99 172C176.76 172 148.93 181.85 132.19 186.09C128.24 187.09 126.19 188.75 126.11 190.43C126.028 188.159 126.546 185.908 127.612 183.901C128.678 181.894 130.253 180.204 132.18 179C148.92 168.5 176.76 154.32 204.99 154.32C249.8 154.32 278.63 170.32 278.63 190.07C278.63 190.19 278.63 190.31 278.63 190.44C278.26 182.49 249.52 172 204.99 172Z;
            M204.99 179C176.76 179 148.93 181.85 132.19 186.09C128.24 187.09 126.19 188.75 126.11 190.43C126.028 188.159 126.546 185.908 127.612 183.901C128.678 181.894 130.253 180.204 132.18 179C148.92 168.5 176.76 154.32 204.99 154.32C249.8 154.32 278.63 170.32 278.63 190.07C278.63 190.19 278.63 190.31 278.63 190.44C278.26 182.49 249.52 179 204.99 179Z;
            M204.99 172C176.76 172 148.93 181.85 132.19 186.09C128.24 187.09 126.19 188.75 126.11 190.43C126.028 188.159 126.546 185.908 127.612 183.901C128.678 181.894 130.253 180.204 132.18 179C148.92 168.5 176.76 154.32 204.99 154.32C249.8 154.32 278.63 170.32 278.63 190.07C278.63 190.19 278.63 190.31 278.63 190.44C278.26 182.49 249.52 172 204.99 172Z;
          "
          dur="2s"
          repeatCount="3"
        />
      </path>
    </g>
    <path
      d="M132.18,195.12c16.74,4.27,44.58,10,72.81,10,44.14,0,72.75-6.32,73.6-14.18-0.86,19.34-29.45,34.86-73.6,34.86-28.23,0-56.07-14.19-72.81-24.68a12.88,12.88,0,0,1-6-10.18c0.26,1.61,2.26,3.18,6,4.14"
      fill="#068e4d"
    />
    <g id="balloon-stripe-second">
      <path
        d="M132.18,186.12c16.74-4.27,44.58-10,72.81-10,44.53,0,73.26,6.43,73.61,14.38,0,0.17,0,.34,0,0.51-0.85,7.86-29.45,14.17-73.6,14.17-28.23,0-56.07-5.76-72.81-10-3.79-1-5.79-2.53-6-4.13l0-.51c0.13-1.69,2.15-3.36,6.1-4.37"
        fill="#25b774"
      >
        <animate
          attributeName="d"
          values="
            M131.99 186C148.73 181.73 176.58 172 204.81 172C249.34 172 278.06 182.43 278.41 190.38C278.41 190.55 278.41 190.72 278.41 190.89C277.56 198.75 248.96 200 204.81 200C176.58 200 148.74 199.3 132 195.06C128.21 194.06 126.21 192.53 126 190.93V190.42C126.13 188.73 128.15 187.06 132.1 186.05;
            M131.99 186C148.73 181.73 176.58 179 204.81 179C249.34 179 278.06 182.43 278.41 190.38C278.41 190.55 278.41 190.72 278.41 190.89C277.56 198.75 248.96 208 204.81 208C176.58 208 148.74 199.3 132 195.06C128.21 194.06 126.21 192.53 126 190.93V190.42C126.13 188.73 128.15 187.06 132.1 186.05;
            M131.99 186C148.73 181.73 176.58 172 204.81 172C249.34 172 278.06 182.43 278.41 190.38C278.41 190.55 278.41 190.72 278.41 190.89C277.56 198.75 248.96 200 204.81 200C176.58 200 148.74 199.3 132 195.06C128.21 194.06 126.21 192.53 126 190.93V190.42C126.13 188.73 128.15 187.06 132.1 186.05;
          "
          dur="2s"
          repeatCount="3"
        />
      </path>
    </g>
    <g id="propeller-top-front">
      <animateTransform
        attributeName="transform"
        type="translate"
        values="0 -3; 0 -3; 0 0; 0 3; 0 3; 0 0; 0 -3"
        keyTimes="0; 0.05; 0.25; 0.5; 0.55; 0.75; 1"
        dur="2s"
        repeatCount="3"
      />
      <path
        d="M123.23,173.34h9.16a3.29,3.29,0,0,1,3.29,3.3v5.71a3.29,3.29,0,0,1-3.29,3.3H115.57a1.32,1.32,0,0,1-1.32-1.32v-2a9,9,0,0,1,9-9"
        fill="#068e4d"
      />
      <path
        d="M123.23,173.34h9.16a3.29,3.29,0,0,1,3.29,3.3v5.71a3.29,3.29,0,0,1-3.29,3.3H115.57a1.32,1.32,0,0,1-1.32-1.32v-2A9,9,0,0,1,123.23,173.34Z"
        fill="none" stroke="#fff" stroke-linecap="round" stroke-linejoin="round" stroke-width="2"
      />
    </g>
    <g id="propeller-bottom-front">
      <animateTransform
        attributeName="transform"
        type="translate"
        values="0 -3; 0 -3; 0 0; 0 3; 0 3; 0 0; 0 -3"
        keyTimes="0; 0.05; 0.25; 0.5; 0.55; 0.75; 1"
        dur="2s"
        repeatCount="3"
      />
      <path
        d="M123.23,207.39h9.16a3.29,3.29,0,0,0,3.29-3.3v-5.71a3.29,3.29,0,0,0-3.29-3.3H115.57a1.32,1.32,0,0,0-1.32,1.32v2a9,9,0,0,0,9,9"
        fill="#068e4d"
      />
      <path
        d="M123.23,207.39h9.16a3.29,3.29,0,0,0,3.29-3.3v-5.71a3.29,3.29,0,0,0-3.29-3.3H115.57a1.32,1.32,0,0,0-1.32,1.32v2A9,9,0,0,0,123.23,207.39Z"
        fill="none" stroke="#fff" stroke-linecap="round" stroke-linejoin="round" stroke-width="2"
      />
    </g>
    <line
      id="fuel-tail-top" x1="106.25" y1="179.49" x2="84.05" y2="179.49" fill="none" stroke="#fff"
      stroke-linecap="round" stroke-miterlimit="10" stroke-width="2"
    >
      <animate
        attributeName="x2"
        to="80.00"
        dur="0.2s"
        repeatCount="indefinite"
      />
    </line>
    <line
      id="fuel-tail-bottom" x1="106.25" y1="201.23" x2="84.05" y2="201.23" fill="none" stroke="#fff"
      stroke-linecap="round" stroke-miterlimit="10" stroke-width="2"
    >
      <animate
        attributeName="x2"
        to="80.00"
        begin="0.15s"
        dur="0.2s"
        repeatCount="3"
      />
    </line>
    <line
      id="fuel-tail-medium" x1="106.25" y1="190.98" x2="68.77" y2="190.98" fill="none" stroke="#fff"
      stroke-linecap="round" stroke-miterlimit="10" stroke-width="2"
    >
      <animate
        attributeName="x2"
        to="63.00"
        begin="0.1s"
        dur="0.2s"
        repeatCount="indefinite"
      />
    </line>
  </g>
  <g id="cloud-first" opacity="0">
    <animate
      attributeType="CSS"
      attributeName="opacity"
      values="0; 1; 1; 0"
      keyTimes="0; 0.15; 0.9; 1"
      dur="1.1s"
      repeatCount="1"
      fill="freeze"
    />
    <g id="cloud-first-bottom">
      <animateTransform
        attributeName="transform"
        type="translate"
        from="150, 0"
        to="-200, 0"
        dur="1.7s"
        repeatCount="1"
        fill="freeze"
        additive="sum"
      />
      <line
        x1="68.95" y1="107.8" x2="131.86" y2="107.8" fill="none" stroke="#fff" stroke-linecap="round"
        stroke-miterlimit="10" stroke-width="2"
      />
    </g>
    <g id="cloud-first-top">
      <animateTransform
        attributeName="transform"
        type="translate"
        from="150, 0"
        to="-200, 0"
        dur="1.5s"
        repeatCount="1"
        fill="freeze"
      />
      <path
        d="M41.77,97.54H77.06a12.4,12.4,0,1,1,24.8,0h17.93" fill="none" stroke="#fff" stroke-linecap="round"
        stroke-miterlimit="10" stroke-width="2"
      />
    </g>
  </g>
  <g id="cloud-second" opacity="0">
    <animate
      attributeType="CSS"
      attributeName="opacity"
      values="0; 1; 1; 0"
      keyTimes="0; 0.15; 0.9; 1"
      begin="1s"
      dur="1.1s"
      repeatCount="1"
      fill="freeze"
    />
    <g id="cloud-second-bottom">
      <animateTransform
        attributeName="transform"
        type="translate"
        from="80, 0"
        to="-250, 0"
        dur="1.7s"
        begin="1s"
        repeatCount="1"
        fill="freeze"
        additive="sum"
      />
      <line
        x1="258.96" y1="93.19" x2="298.74" y2="93.19" fill="none" stroke="#fff" stroke-linecap="round"
        stroke-miterlimit="10" stroke-width="2"
      />
    </g>
    <g id="cloud-second-top">
      <animateTransform
        attributeName="transform"
        type="translate"
        from="80, 0"
        to="-250, 0"
        begin="1s"
        dur="1.5s"
        repeatCount="1"
        fill="freeze"
      />
      <path
        d="M278.75,82.91H251.39a12.4,12.4,0,1,0-24.8,0H208.65" fill="none" stroke="#fff" stroke-linecap="round"
        stroke-miterlimit="10" stroke-width="2"
      />
      <line
        x1="287.01" y1="82.91" x2="309.21" y2="82.91" fill="none" stroke="#fff" stroke-linecap="round"
        stroke-miterlimit="10" stroke-width="2"
      />
    </g>
  </g>
  <g id="landscape">
    <path
      d="M289.94,327.88H244.88L212.8,296.58a1.89,1.89,0,0,0-2.44,0l-10.2,10.23a1.72,1.72,0,0,1-2.25,0l-19-20.17a2.4,2.4,0,0,0-3.1,0l-26.42,25.64a1.71,1.71,0,0,1-2.25,0l-2.63-2.92a1.71,1.71,0,0,0-2.31,0L124.63,329H80.78"
      fill="none" stroke="#fff" stroke-linecap="round" stroke-miterlimit="10" stroke-width="2">
      <animate
        id="mountain-fold"
        attributeName="d"
        from="M 289.94 327.88 L 244.88 327.88 L 212.8 296.58 C 212.459 296.292 212.027 296.134 211.58 296.134 C 211.133 296.134 210.701 296.292 210.36 296.58 L 200.16 306.81 C 199.848 307.08 199.448 307.229 199.035 307.229 C 198.622 307.229 198.222 307.08 197.91 306.81 C 191.577 300.087 185.243 293.363 178.91 286.64 C 178.477 286.274 177.927 286.072 177.36 286.072 C 176.793 286.072 176.243 286.274 175.81 286.64 C 167.003 295.187 158.197 303.733 149.39 312.28 C 149.079 312.552 148.679 312.702 148.265 312.702 C 147.851 312.702 147.451 312.552 147.14 312.28 C 146.263 311.307 145.387 310.333 144.51 309.36 C 144.195 309.071 143.782 308.911 143.355 308.911 C 142.928 308.911 142.515 309.071 142.2 309.36 C 136.343 315.907 130.487 322.453 124.63 329 L 80.78 329"
        to="M 290.16 330 L 272.202 330 L 254.244 330 C 248.258 330 242.272 330 236.286 330 C 230.3 330 224.314 330 218.328 330 L 200.37 330 C 199.51 330 198.81 330 198.12 330 C 191.787 330 185.453 330 179.12 330 C 178.745 330 178.418 330 178.125 330 C 177.832 330 177.573 330 177.334 330 C 177.094 330 176.875 330 176.66 330 C 176.446 330 176.238 330 176.02 330 C 165.253 330 154.487 330 143.72 330 C 143.502 330 143.305 330 143.124 330 C 142.942 330 142.777 330 142.623 330 C 142.469 330 142.326 330 142.19 330 C 142.054 330 141.924 330 141.795 330 C 141.667 330 141.54 330 141.41 330 L 81 330"
        dur="0.35s"
        begin="2s"
        fill="freeze"/>
    </path>
    <path d="M289.94,328H200.15c-0.86,0-1.56,0-2.25,0h-19c-1.5,0-2.23,0-3.1,0h-32.3c-1.09,0-1.66,0-2.31,0H80.78"
          fill="none" stroke="#fff" stroke-linecap="round" stroke-miterlimit="10" stroke-width="2"/>
  </g>
  <g id="expanding-window">
    <path
      opacity="0"
      d="M204.25,231.88h-2.05a3.45,3.45,0,0,0-3.43,3.45v2.92a3.45,3.45,0,0,0,3.43,3.45h2.05a3.45,3.45,0,0,0,3.43-3.45v-2.92A3.44,3.44,0,0,0,204.25,231.88Z"
      fill="none" stroke="#fff" stroke-width="2"
    >
      <set
        attributeName="opacity"
        to="1"
        begin="2s"
      />
      <animate
        attributeName="d"
        from="M204.25,231.88h-2.05a3.45,3.45,0,0,0-3.43,3.45v2.92a3.45,3.45,0,0,0,3.43,3.45h2.05a3.45,3.45,0,0,0,3.43-3.45v-2.92A3.44,3.44,0,0,0,204.25,231.88Z"
        to="M275,225.43H257.87a17.6,17.6,0,0,1-17.52-17.58V170a17.6,17.6,0,0,1,17.52-17.58H275A17.6,17.6,0,0,1,292.51,170v37.83A17.61,17.61,0,0,1,275,225.43Z"
        dur="0.35s"
        begin="2s"
        fill="freeze"/>
    </path>
  </g>
  <g id="final-state" opacity="0">
    <animate
      attributeName="opacity"
      begin="2.35s"
      to="1"
      dur="0.5s"
      fill="freeze"
    />
    <defs>
      <clipPath id="window">
        <path
          d="M275,225.43H257.87a17.6,17.6,0,0,1-17.52-17.58V170a17.6,17.6,0,0,1,17.52-17.58H275A17.6,17.6,0,0,1,292.51,170v37.83A17.61,17.61,0,0,1,275,225.43Z"/>
      </clipPath>
    </defs>
    <g id="skies">
      <animateTransform
        attributeName="transform"
        type="translate"
        from="-100, 0"
        to="0, 0"
        dur="0.3s"
        begin="2.35s"
        repeatCount="1"
        fill="freeze"
      />
      <path
        d="M91.14,327.79a2.2,2.2,0,0,1-2-2.36l13.66-193.17c1.1-15.49-4.8-21.92-8.75-24.47a1.35,1.35,0,0,1,.53-2.45C103,104,122.18,104,120,134.19L106.43,326.67a2.2,2.2,0,0,1-2.35,2Z"
        fill="#fff"/>
      <path
        d="M124.5,328.17a2.2,2.2,0,0,1-2.17-2.23l2.24-193.63c0.19-15.53-6.07-21.61-10.16-23.91a1.35,1.35,0,0,1,.39-2.47c8.36-1.9,27.49-3,27.15,27.28l-2.25,192.93a2.2,2.2,0,0,1-2.22,2.18Z"
        fill="#fff"/>
    </g>
    <g>
      <path
        d="M275,225.43H257.87a17.6,17.6,0,0,1-17.52-17.58V170a17.6,17.6,0,0,1,17.52-17.58H275A17.6,17.6,0,0,1,292.51,170v37.83A17.61,17.61,0,0,1,275,225.43Z"
        fill="none" stroke="#fff" stroke-width="2"/>
    </g>
    <g clip-path="url(#window)">
      <g transform="translate(220 170) scale(0.7)">
        <g id="cloud-first-final">
          <g id="cloud-first-final-top">
            <animateTransform
              attributeName="transform"
              type="translate"
              from="100, 0"
              to="-540, 0"
              dur="4s"
              begin="2.35s"
              repeatCount="indefinite"
              fill="freeze"
              additive="sum"
            />
            <line x1="28.18" y1="38.34" x2="91.09" y2="38.34" fill="none" stroke="#fff" stroke-linecap="round"
                  stroke-miterlimit="10" stroke-width="2"/>
          </g>
          <g id="cloud-first-final-bottom">
            <animateTransform
              attributeName="transform"
              type="translate"
              from="100, 0"
              to="-550, 0"
              dur="4s"
              begin="2.35s"
              repeatCount="indefinite"
              fill="freeze"
              additive="sum"
            />
            <path d="M41.77,97.54H77.06a12.4,12.4,0,1,1,24.8,0h17.93" transform="translate(-40.77 -69.46)" fill="none"
                  stroke="#fff" stroke-linecap="round" stroke-miterlimit="10" stroke-width="2"/>
          </g>
        </g>
        <g id="cloud-second-final">
          <animate
            attributeType="CSS"
            attributeName="opacity"
            values="1; 0; 0; 1"
            keyTimes="0; 0.4; 0.9; 1"
            begin="4.5s"
            dur="0.7s"
            repeatCount="1"
            fill="freeze"
          />
          <g id="could-second-final-bottom">
            <animateTransform
              attributeName="transform"
              type="translate"
              from="0, 0"
              to="-500, 0"
              dur="4s"
              begin="3.35s"
              repeatCount="indefinite"
              fill="freeze"
              additive="sum"
            />
            <line x1="218.19" y1="23.72" x2="257.97" y2="23.72" fill="none" stroke="#fff" stroke-linecap="round"
                  stroke-miterlimit="10" stroke-width="2"/>
          </g>
          <g id="cloud-second-final-top">
            <animateTransform
              attributeName="transform"
              type="translate"
              from="0, 0"
              to="-550, 0"
              begin="3.35s"
              dur="4s"
              repeatCount="indefinite"
              fill="freeze"
            />
            <path d="M278.75,82.91H251.39a12.4,12.4,0,1,0-24.8,0H208.65" transform="translate(-40.77 -69.46)" fill="none"
                  stroke="#fff" stroke-linecap="round" stroke-miterlimit="10" stroke-width="2"/>
            <line x1="246.24" y1="13.45" x2="268.43" y2="13.45" fill="none" stroke="#fff" stroke-linecap="round"
                  stroke-miterlimit="10" stroke-width="2"/>
          </g>
        </g>
      </g>
    </g>
    <g id="chair" opacity="0">
      <animate
        attributeName="opacity"
        begin="2.35s"
        to="1"
        dur="0.2s"
        fill="freeze"
      />
      <animateTransform
        attributeName="transform"
        type="translate"
        from="-100, 0"
        to="0, 0"
        dur="0.3s"
        begin="2.3s"
        repeatCount="1"
        fill="freeze"
      />
      <path d="M257.5,259.82H196.76V245.63h55.09a9.92,9.92,0,0,1,9.9,9.93,4.26,4.26,0,0,1-4.25,4.25" fill="#a67ee5"/>
      <path d="M257.5,259.82H196.76V245.63h55.09a9.92,9.92,0,0,1,9.9,9.93A4.26,4.26,0,0,1,257.5,259.82Z" fill="none"
            stroke="#fff" stroke-miterlimit="10" stroke-width="2"/>
      <polygon points="185.47 328.31 171.5 328.31 165.19 286.72 179.16 286.72 185.47 328.31" fill="#a67ee5"/>
      <polygon points="185.47 328.31 171.5 328.31 165.19 286.72 179.16 286.72 185.47 328.31" fill="none" stroke="#fff"
               stroke-miterlimit="10" stroke-width="2"/>
      <polygon points="235.03 328.31 221.06 328.31 214.76 286.72 228.72 286.72 235.03 328.31" fill="#a67ee5"/>
      <polygon points="235.03 328.31 221.06 328.31 214.76 286.72 228.72 286.72 235.03 328.31" fill="none" stroke="#fff"
               stroke-miterlimit="10" stroke-width="2"/>
      <path
        d="M281.33,272.45H225.44a5.59,5.59,0,0,1-5.53-4.77l-10.86-72.24a17.71,17.71,0,0,0-12.49-31.31H141.48L141.16,267l15.77,23.35,47.19,8.39a12.3,12.3,0,0,0,4.22.75h73a13.53,13.53,0,0,0,0-27.06"
        fill="#a67ee5"/>
      <path
        d="M281.33,272.45H225.44a5.59,5.59,0,0,1-5.53-4.77l-10.86-72.24a17.71,17.71,0,0,0-12.49-31.31H141.48L141.16,267l15.77,23.35,47.19,8.39a12.3,12.3,0,0,0,4.22.75h73A13.53,13.53,0,0,0,281.33,272.45Z"
        fill="none" stroke="#fff" stroke-miterlimit="10" stroke-width="2"/>
      <path
        d="M162.42,267.69l-10.86-72.24a17.71,17.71,0,1,0-29-13.61,18,18,0,0,0,.79,5.25L138.65,289a12.36,12.36,0,0,0,12.21,10.54h73a13.53,13.53,0,0,0,0-27.05H167.95a5.62,5.62,0,0,1-5.53-4.78"
        fill="#a67ee5"/>
      <path
        d="M162.42,267.69l-10.86-72.24a17.71,17.71,0,1,0-29-13.61,18,18,0,0,0,.79,5.25L138.65,289a12.36,12.36,0,0,0,12.21,10.54h73a13.53,13.53,0,0,0,0-27.05H167.95A5.62,5.62,0,0,1,162.42,267.69Z"
        fill="none" stroke="#fff" stroke-miterlimit="10" stroke-width="2"/>
      <path d="M206.26,259.82h-72l-2.13-14.19H200.6a9.92,9.92,0,0,1,9.9,9.93,4.26,4.26,0,0,1-4.25,4.25" fill="#a67ee5"/>
      <path d="M206.26,259.82h-72l-2.13-14.19H200.6a9.92,9.92,0,0,1,9.9,9.93A4.26,4.26,0,0,1,206.26,259.82Z" fill="none"
            stroke="#fff" stroke-miterlimit="10" stroke-width="2"/>
      <line x1="151.57" y1="195.44" x2="209.05" y2="195.44" fill="none" stroke="#fff" stroke-linecap="round"
            stroke-miterlimit="10" stroke-width="2"/>
    </g>
    <g id="branch" opacity="0">
      <animate
        attributeName="opacity"
        begin="2.4s"
        to="1"
        dur="0.1s"
        fill="freeze"
        additive="sum"
      />
      <animateTransform
        attributeName="transform"
        type="translate"
        from="-100, 0"
        to="0, 0"
        dur="0.3s"
        begin="2.35s"
        repeatCount="1"
        fill="freeze"
        additive="sum"
      />
      <animateTransform
        id="branch-initial-shake"
        attributeName="transform"
        type="rotate"
        values="5 150 320; -5 150 320; 3 150 320; -3 150 320; 0 150 320"
        dur="1s"
        begin="2.45s"
        repeatCount="1"
        fill="freeze"
        additive="sum"
      />
      <animateTransform
        id="branch-background-shake"
        attributeName="transform"
        type="rotate"
        values="0 150 320; 3 150 320; -3 150 320; 5 150 320; -5 150 320; 3 150 320; -3 150 320; 0 150 320"
        dur="1s"
        begin="branch-initial-shake.end + 4s; branch-background-shake.end + 4s"
        fill="freeze"
        additive="sum"
      />
      <path
        d="M79.18,194A131,131,0,0,1,94.77,220.9a255,255,0,0,1-20.08-23.55,259,259,0,0,1-17.07-25.88A131.72,131.72,0,0,1,79.18,194"
        fill="#36e69a"/>
      <path
        d="M80.94,214.39a127.19,127.19,0,0,1,22.8,20.49A242.09,242.09,0,0,1,77.9,219.17a235.86,235.86,0,0,1-23.42-18.7,119.82,119.82,0,0,1,26.46,13.92"
        fill="#36e69a"/>
      <path
        d="M93.66,205.48a258.38,258.38,0,0,0,10.08,29.39,125.63,125.63,0,0,0-4.5-30.52,135.9,135.9,0,0,0-12.06-29.44,260.33,260.33,0,0,0,6.47,30.57"
        fill="#36e69a"/>
      <path
        d="M107.32,213.52a250.14,250.14,0,0,0,2.06,30.67,119.93,119.93,0,0,0,3.76-30.05,131.24,131.24,0,0,0-4-31.36,238.1,238.1,0,0,0-1.87,30.74"
        fill="#25b774"/>
      <path
        d="M83.08,229.56a121.93,121.93,0,0,1,26.29,14.64A225.91,225.91,0,0,1,81.21,235a228.11,228.11,0,0,1-26.37-12.69,113.61,113.61,0,0,1,28.25,7.29"
        fill="#25b774"/>
      <path
        d="M88.06,243.83A118.11,118.11,0,0,1,115.62,255a211,211,0,0,1-28.78-5.6,220.87,220.87,0,0,1-27.42-9.33,114,114,0,0,1,28.65,3.73"
        fill="#25b774"/>
      <path
        d="M118.71,224.79a238,238,0,0,0-3.1,30.25,117.11,117.11,0,0,0,8.82-28.54,127.44,127.44,0,0,0,1.42-31.19,213.92,213.92,0,0,0-7.15,29.48"
        fill="#25b774"/>
      <path
        d="M98.86,262a118.24,118.24,0,0,1,27.07,12.34,212.3,212.3,0,0,1-28.53-6.79,220.78,220.78,0,0,1-27-10.45A114.06,114.06,0,0,1,98.86,262"
        fill="#068e4d"/>
      <path
        d="M130.27,244.29a236.56,236.56,0,0,0-4.34,30.1,116.94,116.94,0,0,0,10-28.16,127.42,127.42,0,0,0,2.71-31.1,214.43,214.43,0,0,0-8.36,29.16"
        fill="#068e4d"/>
      <path
        d="M108.9,280.69a118.21,118.21,0,0,1,26.54,13.47,213.62,213.62,0,0,1-28.23-8,221.65,221.65,0,0,1-26.55-11.57,113.82,113.82,0,0,1,28.24,6.08"
        fill="#068e4d"/>
      <path
        d="M141,264.26a236.09,236.09,0,0,0-5.58,29.9,117.46,117.46,0,0,0,11.15-27.73,127.2,127.2,0,0,0,4-31A214.24,214.24,0,0,0,141,264.26"
        fill="#068e4d"/>
      <path d="M92.62,217.67A529.26,529.26,0,0,1,149.48,328" fill="none" stroke="#36e69a" stroke-linecap="round"
            stroke-linejoin="round" stroke-width="2"/>
    </g>
  </g>
</svg>
